<mxfile host="app.diagrams.net" modified="2020-11-16T11:40:33.768Z" agent="5.0 (Macintosh; Intel Mac OS X 10_15_7) AppleWebKit/605.1.15 (KHTML, like Gecko) Version/13.1.3 Safari/605.1.15" etag="SCRfXDZtttzM4o5wCuU0" version="13.9.9" type="github">
  <diagram id="UUgaOf1F6qNWSPvY_eEi" name="Page-1">
    <mxGraphModel dx="946" dy="662" grid="1" gridSize="10" guides="1" tooltips="1" connect="1" arrows="1" fold="1" page="1" pageScale="1" pageWidth="827" pageHeight="1169" math="0" shadow="0">
      <root>
        <mxCell id="0" />
        <mxCell id="1" parent="0" />
        <mxCell id="LLyH-jrI4SZby10niK_6-6" value="eu-central-1" style="outlineConnect=0;gradientColor=none;html=1;whiteSpace=wrap;fontSize=12;fontStyle=0;shape=mxgraph.aws4.group;grIcon=mxgraph.aws4.group_region;strokeColor=#879196;fillColor=none;verticalAlign=top;align=left;spacingLeft=30;fontColor=#879196;dashed=1;" parent="1" vertex="1">
          <mxGeometry x="94" y="80" width="640" height="580" as="geometry" />
        </mxCell>
        <mxCell id="LLyH-jrI4SZby10niK_6-10" value="eu-central-1a" style="outlineConnect=0;gradientColor=none;html=1;whiteSpace=wrap;fontSize=12;fontStyle=0;shape=mxgraph.aws4.group;grIcon=mxgraph.aws4.group_availability_zone;strokeColor=#545B64;fillColor=none;verticalAlign=top;align=left;spacingLeft=30;fontColor=#545B64;dashed=1;" parent="1" vertex="1">
          <mxGeometry x="104" y="150" width="200" height="500" as="geometry" />
        </mxCell>
        <mxCell id="LLyH-jrI4SZby10niK_6-7" value="eu-central-1c" style="outlineConnect=0;gradientColor=none;html=1;whiteSpace=wrap;fontSize=12;fontStyle=0;shape=mxgraph.aws4.group;grIcon=mxgraph.aws4.group_availability_zone;strokeColor=#545B64;fillColor=none;verticalAlign=top;align=left;spacingLeft=30;fontColor=#545B64;dashed=1;" parent="1" vertex="1">
          <mxGeometry x="504" y="150" width="210" height="500" as="geometry" />
        </mxCell>
        <mxCell id="LLyH-jrI4SZby10niK_6-9" value="eu-central-1b" style="outlineConnect=0;gradientColor=none;html=1;whiteSpace=wrap;fontSize=12;fontStyle=0;shape=mxgraph.aws4.group;grIcon=mxgraph.aws4.group_availability_zone;strokeColor=#545B64;fillColor=none;verticalAlign=top;align=left;spacingLeft=30;fontColor=#545B64;dashed=1;" parent="1" vertex="1">
          <mxGeometry x="314" y="150" width="180" height="500" as="geometry" />
        </mxCell>
        <mxCell id="LLyH-jrI4SZby10niK_6-5" value="VPC (default)" style="outlineConnect=0;html=1;whiteSpace=wrap;fontSize=12;fontStyle=0;shape=mxgraph.aws4.group;grIcon=mxgraph.aws4.group_vpc;strokeColor=#666666;fillColor=#f5f5f5;verticalAlign=top;align=left;spacingLeft=30;dashed=0;fillOpacity=60;fontColor=#333333;" parent="1" vertex="1">
          <mxGeometry x="114" y="190" width="590" height="450" as="geometry" />
        </mxCell>
        <mxCell id="LLyH-jrI4SZby10niK_6-4" value="Subnet (default)" style="outlineConnect=0;gradientColor=none;html=1;whiteSpace=wrap;fontSize=12;fontStyle=0;shape=mxgraph.aws4.group;grIcon=mxgraph.aws4.group_subnet;strokeColor=#879196;fillColor=none;verticalAlign=top;align=left;spacingLeft=30;fontColor=#879196;dashed=0;" parent="1" vertex="1">
          <mxGeometry x="124" y="310" width="170" height="320" as="geometry" />
        </mxCell>
        <mxCell id="LLyH-jrI4SZby10niK_6-3" value="Security Group" style="fontStyle=0;verticalAlign=top;align=center;spacingTop=-2;fillColor=#fff2cc;rounded=0;whiteSpace=wrap;html=1;strokeColor=#d6b656;strokeWidth=2;dashed=1;container=1;collapsible=0;expand=0;recursiveResize=0;" parent="1" vertex="1">
          <mxGeometry x="144" y="490" width="130" height="127" as="geometry" />
        </mxCell>
        <mxCell id="LLyH-jrI4SZby10niK_6-1" value="" style="outlineConnect=0;dashed=0;verticalLabelPosition=bottom;verticalAlign=top;align=center;html=1;shape=mxgraph.aws3.rds_db_instance;fillColor=#2E73B8;gradientColor=none;" parent="LLyH-jrI4SZby10niK_6-3" vertex="1">
          <mxGeometry x="40.25" y="37" width="49.5" height="66" as="geometry" />
        </mxCell>
        <mxCell id="LLyH-jrI4SZby10niK_6-27" style="edgeStyle=orthogonalEdgeStyle;rounded=0;orthogonalLoop=1;jettySize=auto;html=1;exitX=1;exitY=0.5;exitDx=0;exitDy=0;exitPerimeter=0;entryX=0;entryY=0.5;entryDx=0;entryDy=0;entryPerimeter=0;" parent="1" source="LLyH-jrI4SZby10niK_6-2" target="LLyH-jrI4SZby10niK_6-19" edge="1">
          <mxGeometry relative="1" as="geometry" />
        </mxCell>
        <mxCell id="LLyH-jrI4SZby10niK_6-2" value="Internet gateway" style="outlineConnect=0;dashed=0;verticalLabelPosition=bottom;verticalAlign=top;align=center;html=1;shape=mxgraph.aws3.internet_gateway;fillColor=#F58534;gradientColor=none;" parent="1" vertex="1">
          <mxGeometry x="250" y="215" width="28.75" height="30" as="geometry" />
        </mxCell>
        <mxCell id="LLyH-jrI4SZby10niK_6-28" style="edgeStyle=orthogonalEdgeStyle;rounded=0;orthogonalLoop=1;jettySize=auto;html=1;exitX=0.92;exitY=0.5;exitDx=0;exitDy=0;exitPerimeter=0;entryX=0.5;entryY=0;entryDx=0;entryDy=0;entryPerimeter=0;" parent="1" source="LLyH-jrI4SZby10niK_6-12" target="LLyH-jrI4SZby10niK_6-2" edge="1">
          <mxGeometry relative="1" as="geometry" />
        </mxCell>
        <mxCell id="LLyH-jrI4SZby10niK_6-12" value="" style="aspect=fixed;pointerEvents=1;shadow=0;dashed=0;html=1;strokeColor=none;labelPosition=center;verticalLabelPosition=bottom;verticalAlign=top;align=center;fillColor=#00188D;shape=mxgraph.azure.laptop" parent="1" vertex="1">
          <mxGeometry x="124" y="30" width="66.66" height="40" as="geometry" />
        </mxCell>
        <mxCell id="LLyH-jrI4SZby10niK_6-15" value="Subnet (default)" style="outlineConnect=0;gradientColor=none;html=1;whiteSpace=wrap;fontSize=12;fontStyle=0;shape=mxgraph.aws4.group;grIcon=mxgraph.aws4.group_subnet;strokeColor=#879196;fillColor=none;verticalAlign=top;align=left;spacingLeft=30;fontColor=#879196;dashed=0;" parent="1" vertex="1">
          <mxGeometry x="514" y="310" width="180" height="320" as="geometry" />
        </mxCell>
        <mxCell id="LLyH-jrI4SZby10niK_6-16" value="Subnet (default)" style="outlineConnect=0;gradientColor=none;html=1;whiteSpace=wrap;fontSize=12;fontStyle=0;shape=mxgraph.aws4.group;grIcon=mxgraph.aws4.group_subnet;strokeColor=#879196;fillColor=none;verticalAlign=top;align=left;spacingLeft=30;fontColor=#879196;dashed=0;" parent="1" vertex="1">
          <mxGeometry x="324" y="310" width="160" height="320" as="geometry" />
        </mxCell>
        <mxCell id="LLyH-jrI4SZby10niK_6-23" style="edgeStyle=orthogonalEdgeStyle;rounded=0;orthogonalLoop=1;jettySize=auto;html=1;exitX=0.5;exitY=1;exitDx=0;exitDy=0;exitPerimeter=0;" parent="1" source="LLyH-jrI4SZby10niK_6-19" target="LLyH-jrI4SZby10niK_6-16" edge="1">
          <mxGeometry relative="1" as="geometry" />
        </mxCell>
        <mxCell id="LLyH-jrI4SZby10niK_6-24" style="edgeStyle=orthogonalEdgeStyle;rounded=0;orthogonalLoop=1;jettySize=auto;html=1;exitX=0.5;exitY=1;exitDx=0;exitDy=0;exitPerimeter=0;" parent="1" source="LLyH-jrI4SZby10niK_6-19" target="LLyH-jrI4SZby10niK_6-4" edge="1">
          <mxGeometry relative="1" as="geometry" />
        </mxCell>
        <mxCell id="LLyH-jrI4SZby10niK_6-25" style="edgeStyle=orthogonalEdgeStyle;rounded=0;orthogonalLoop=1;jettySize=auto;html=1;exitX=0.5;exitY=1;exitDx=0;exitDy=0;exitPerimeter=0;" parent="1" source="LLyH-jrI4SZby10niK_6-19" target="LLyH-jrI4SZby10niK_6-15" edge="1">
          <mxGeometry relative="1" as="geometry" />
        </mxCell>
        <mxCell id="LLyH-jrI4SZby10niK_6-19" value="Route table public" style="outlineConnect=0;dashed=0;verticalLabelPosition=middle;verticalAlign=middle;align=left;html=1;shape=mxgraph.aws3.route_table;fillColor=#F58536;gradientColor=none;labelPosition=right;" parent="1" vertex="1">
          <mxGeometry x="346" y="219.5" width="23.71" height="21" as="geometry" />
        </mxCell>
        <mxCell id="Gg3K2ls2yGk3OWGE8Ab6-1" value="Security Group" style="fontStyle=0;verticalAlign=top;align=center;spacingTop=-2;fillColor=#fff2cc;rounded=0;whiteSpace=wrap;html=1;strokeColor=#d6b656;strokeWidth=2;dashed=1;container=1;collapsible=0;expand=0;recursiveResize=0;" parent="1" vertex="1">
          <mxGeometry x="144" y="350" width="130" height="127" as="geometry" />
        </mxCell>
        <mxCell id="Gg3K2ls2yGk3OWGE8Ab6-4" value="" style="outlineConnect=0;dashed=0;verticalLabelPosition=bottom;verticalAlign=top;align=center;html=1;shape=mxgraph.aws3.ec2;fillColor=#F58534;gradientColor=none;" parent="Gg3K2ls2yGk3OWGE8Ab6-1" vertex="1">
          <mxGeometry x="48.55" y="70" width="32.9" height="40" as="geometry" />
        </mxCell>
        <mxCell id="paXODEU10Lux1fWIncTx-1" value="" style="shape=image;html=1;verticalAlign=top;verticalLabelPosition=bottom;labelBackgroundColor=#ffffff;imageAspect=0;aspect=fixed;image=https://cdn2.iconfinder.com/data/icons/nodejs-1/128/nodejs-128.png" parent="Gg3K2ls2yGk3OWGE8Ab6-1" vertex="1">
          <mxGeometry x="41" y="22" width="48" height="48" as="geometry" />
        </mxCell>
        <mxCell id="Gg3K2ls2yGk3OWGE8Ab6-3" value="Route 53" style="outlineConnect=0;dashed=0;verticalLabelPosition=middle;verticalAlign=middle;align=left;html=1;shape=mxgraph.aws3.route_53;fillColor=#F58536;gradientColor=none;labelPosition=right;" parent="1" vertex="1">
          <mxGeometry x="490" y="210" width="32.98" height="40" as="geometry" />
        </mxCell>
        <mxCell id="Gg3K2ls2yGk3OWGE8Ab6-5" style="edgeStyle=orthogonalEdgeStyle;rounded=0;orthogonalLoop=1;jettySize=auto;html=1;exitX=1;exitY=0.5;exitDx=0;exitDy=0;exitPerimeter=0;entryX=0.5;entryY=1;entryDx=0;entryDy=0;entryPerimeter=0;endArrow=none;endFill=0;curved=1;dashed=1;" parent="1" source="Gg3K2ls2yGk3OWGE8Ab6-4" target="Gg3K2ls2yGk3OWGE8Ab6-3" edge="1">
          <mxGeometry relative="1" as="geometry" />
        </mxCell>
        <mxCell id="Gg3K2ls2yGk3OWGE8Ab6-6" style="edgeStyle=orthogonalEdgeStyle;rounded=0;orthogonalLoop=1;jettySize=auto;html=1;entryX=0.5;entryY=1;entryDx=0;entryDy=0;entryPerimeter=0;endArrow=none;endFill=0;curved=1;dashed=1;" parent="1" source="LLyH-jrI4SZby10niK_6-1" target="Gg3K2ls2yGk3OWGE8Ab6-3" edge="1">
          <mxGeometry relative="1" as="geometry">
            <mxPoint x="235.45000000000005" y="450" as="sourcePoint" />
            <mxPoint x="556.49" y="235" as="targetPoint" />
          </mxGeometry>
        </mxCell>
        <mxCell id="WJ81USQerfGTGFu2v-6j-1" value="IAM role" style="outlineConnect=0;dashed=0;verticalLabelPosition=bottom;verticalAlign=top;align=center;html=1;shape=mxgraph.aws3.role;fillColor=#759C3E;gradientColor=none;" vertex="1" parent="1">
          <mxGeometry x="468.93" y="93" width="35.07" height="29.5" as="geometry" />
        </mxCell>
        <mxCell id="WJ81USQerfGTGFu2v-6j-2" style="edgeStyle=orthogonalEdgeStyle;rounded=0;orthogonalLoop=1;jettySize=auto;html=1;exitX=1;exitY=0.5;exitDx=0;exitDy=0;exitPerimeter=0;entryX=0.4;entryY=1;entryDx=0;entryDy=0;entryPerimeter=0;endArrow=none;endFill=0;curved=1;dashed=1;strokeColor=#00CC00;startArrow=oval;startFill=1;" edge="1" parent="1" source="Gg3K2ls2yGk3OWGE8Ab6-4" target="WJ81USQerfGTGFu2v-6j-1">
          <mxGeometry relative="1" as="geometry">
            <mxPoint x="235.45000000000005" y="450" as="sourcePoint" />
            <mxPoint x="516.49" y="260" as="targetPoint" />
          </mxGeometry>
        </mxCell>
        <mxCell id="WJ81USQerfGTGFu2v-6j-3" value="db secrets" style="outlineConnect=0;fontColor=#232F3E;gradientColor=#F54749;gradientDirection=north;fillColor=#C7131F;strokeColor=#ffffff;dashed=0;verticalLabelPosition=bottom;verticalAlign=top;align=center;html=1;fontSize=12;fontStyle=0;aspect=fixed;shape=mxgraph.aws4.resourceIcon;resIcon=mxgraph.aws4.secrets_manager;" vertex="1" parent="1">
          <mxGeometry x="401" y="92.5" width="30" height="30" as="geometry" />
        </mxCell>
        <mxCell id="WJ81USQerfGTGFu2v-6j-4" style="edgeStyle=orthogonalEdgeStyle;rounded=0;orthogonalLoop=1;jettySize=auto;html=1;endArrow=none;endFill=0;curved=1;dashed=1;strokeColor=#FF6666;" edge="1" parent="1" source="paXODEU10Lux1fWIncTx-1" target="WJ81USQerfGTGFu2v-6j-3">
          <mxGeometry relative="1" as="geometry">
            <mxPoint x="235.45000000000005" y="450" as="sourcePoint" />
            <mxPoint x="516.49" y="260" as="targetPoint" />
          </mxGeometry>
        </mxCell>
      </root>
    </mxGraphModel>
  </diagram>
</mxfile>
